<svg width="52" height="52" fill="none" xmlns="http://www.w3.org/2000/svg"><path d="M26 0A26 26 0 005 41.2L1.6 51l10-3.2A26 26 0 1026 0z" fill="#fff"/><path d="M41.1 36.7c-.6 1.8-3 3.3-5 3.7-1.4.3-3.2.5-9.2-2-7.6-3.1-12.5-10.9-13-11.4-.3-.5-3-4.1-3-7.8 0-3.8 1.9-5.6 2.7-6.4.6-.6 1.6-1 2.6-1l.9.1c.7 0 1.1.1 1.6 1.3l2.4 5.6c.2.4.3 1 0 1.4-.2.6-.4.8-.8 1.2l-1 1.3c-.4.4-.8.8-.4 1.6s2 3.2 4.2 5.2c3 2.6 5.3 3.5 6.1 3.8.6.3 1.4.2 1.9-.3l2-2.7c.5-.7 1.2-.8 1.8-.5.7.2 4.5 2 5.2 2.4.8.4 1.3.6 1.5 1 .2.2.2 1.7-.5 3.5z" fill="#2E009F"/></svg>